<svg xmlns="http://www.w3.org/2000/svg" xmlns:xlink="http://www.w3.org/1999/xlink" version="1.1" x="0px" y="0px" viewBox="0 0 100 125" style="enable-background:new 0 0 100 100;" xml:space="preserve"><g><path d="M71.4438477,12.6630859c-0.3720703-0.0766602-0.8295898-0.1464844-1.3232422-0.2080078   c-2.2280273-0.2783203-4.6196289-0.3300781-7.1616211-0.1508789L22.8562622,16.543335   c-8.180603,0.0405273-13.8855591,4.3266602-13.8855591,10.4561768c0,2.3764648,0.8535156,6.2055664,2.4360352,8.6206055   c0.0625,0.0957031,0.1503906,0.3388672,0.1586914,0.4228516v32.0205078c0,0.7294922,0.5253906,1.3535156,1.2441406,1.4785156   L27.744812,72.125061l-3.8380737,4.7001343c-0.0101929,0.0125122-0.0147705,0.0278931-0.0245361,0.0406494   c-0.1504517,0.1960449-0.2525024,0.4282227-0.2911987,0.6835938c-0.0053101,0.0350342-0.0076294,0.069397-0.010498,0.1046753   c-0.0032349,0.0404053-0.012146,0.0791016-0.012146,0.1203003v5.5898438c0,1.8603516,1.5131836,3.3730469,3.3735352,3.3730469   h29.7939453c0.4121094,0,0.6572266,0.0654297,0.7094727,0.0878906c0.1367188,0.0625,0.2607422,0.1220703,0.3798828,0.1796875   c1.0263672,0.4960938,1.8115234,0.796875,4.0576172,0.796875c7.2636719,0,16.2094727-3.3388672,19.9414062-7.4433594   c0.7172852-0.7880859,1.234375-1.5888672,1.5375977-2.3818359c0.2485352-0.6503906,0.3554688-1.2978516,0.3198242-1.8310547   v-6.9189453c0-0.041748-0.0089111-0.0809937-0.0122681-0.1218872c0.0209961-0.3389893,0.0012207-0.671936-0.0584717-0.9963379   c0.4036255-0.0595703,0.8119507-0.1218262,1.2123413-0.1796265c1.9189453-0.2783203,3.421875-2.0791016,3.421875-4.0986328   v-26.902832c0-0.1494141,0.0405273-0.2753906,0.1108398-0.3457031c1.5239258-1.5185547,2.6733398-4.8793945,2.6733398-7.8173828   C91.0292969,20.4741211,80.8769531,14.6069336,71.4438477,12.6630859z M63.2216797,15.2919922   c2.2954102-0.1591797,4.4926758-0.1132812,6.527832,0.1396484c0.4067383,0.0507812,0.7832031,0.1069336,1.0893555,0.1699219   c9.9609375,2.0522461,17.1904297,7.5878906,17.1904297,13.1625977c0,2.2368164-0.9453125,4.8500977-1.7910156,5.6928711   c-0.0638428,0.0636597-0.1115723,0.1395874-0.1696167,0.2078247l-39.9483643,6.6439819   c0.9147949-1.7139893,1.5252075-4.0686646,1.5252075-6.1940918c0-6.5628052-6.2727661-13.3634644-14.7020874-16.6212769   L63.2216797,15.2919922z M80.5029297,68.2636719c0.1518555,0.2207031,0.2958984,0.5537109,0.0566406,1.1787109   c-0.1665039,0.4345703-0.496582,0.9306641-0.9545898,1.4345703c-3.1308594,3.4423828-11.4121094,6.4628906-17.722168,6.4628906   c-1.7202148,0-2.0864258-0.1767578-2.7509766-0.4980469c-0.1420898-0.0693359-0.2905273-0.140625-0.4545898-0.2148438   c-0.6484375-0.2910156-1.4135742-0.3525391-1.9414062-0.3525391H28.2299805l7.0087891-8.5830078H68.25   c0.5180664,0,1.206543-0.0976562,1.6166992-0.1943359l0.6030273-0.1416016   c1.8530273-0.4365234,2.7832031-0.65625,4.5644531-0.65625C78.2763672,66.6992188,80.0063477,67.5419922,80.5029297,68.2636719z    M14.5654297,66.8007812V36.0429688c0-0.7431641-0.3261719-1.5737305-0.6494141-2.0673828   c-1.2016602-1.8334961-1.9453125-5.0488281-1.9453125-6.9760742c0-4.3920898,4.5234375-7.4599609,11.0004883-7.4599609   c1.5112305,0,3.0874023,0.1669922,4.6850586,0.4970703c9.050293,1.8642578,16.9892578,8.9101562,16.9892578,15.078125   c0,2.2797852-0.9370117,4.8227539-1.7773438,5.6791992c-0.5988159,0.6098022-0.946167,1.4472656-0.989624,2.3175049   c-0.0059204,0.0494385-0.0136108,0.0980835-0.0144653,0.1484985c-0.000061,0.0094604-0.0027466,0.0186768-0.0027466,0.0281372   v21.4033203h-7.3344727c-0.4501953,0-0.8769531,0.2021484-1.1616211,0.5507812l-3.4412842,4.2142334L14.5654297,66.8007812z    M80.5595703,76.9052734c-0.1665039,0.4345703-0.496582,0.9306641-0.9545898,1.4345703   c-3.1303711,3.4423828-11.4116211,6.4619141-17.722168,6.4619141c-1.7211914,0-2.0874023-0.1767578-2.7524414-0.4980469   c-0.1416016-0.0683594-0.2895508-0.1396484-0.453125-0.2138672c-0.6484375-0.2910156-1.4135742-0.3525391-1.9414062-0.3525391   H26.9418945c-0.2060547,0-0.3735352-0.1669922-0.3735352-0.3730469v-4.0898438h30.1674805   c0.4121094,0,0.6572266,0.0654297,0.7094727,0.0878906c0.137207,0.0625,0.2617188,0.1230469,0.3808594,0.1806641   c1.0263672,0.4960938,1.8115234,0.796875,4.0566406,0.796875c6.6105347,0,14.6017456-2.7695312,18.8008423-6.3612061   l0.0009155,2.258667C80.6962891,76.4326172,80.6542969,76.6572266,80.5595703,76.9052734z M84.394043,64.9599609   c-0.8701172,0.1248779-1.7520752,0.2564697-2.6381836,0.3898926c-1.5092163-1.0732422-3.8225098-1.6506348-6.7216797-1.6506348   c-2.1298828,0-3.3720703,0.2929688-5.2529297,0.7363281l-0.5986328,0.140625   C68.925293,64.6367188,68.480957,64.6914062,68.25,64.6914062H44.8613281V44.559021l40.3837891-6.7163696v25.9874268   C85.2451172,64.3964844,84.7866211,64.9023438,84.394043,64.9599609z"/><path d="M25.699707,38.3496094c-0.0800781-0.0595703-0.1699219-0.1098633-0.2597656-0.1396484   c-0.090332-0.0400391-0.1801758-0.0703125-0.2802734-0.090332c-0.4799805-0.0996094-1,0.0600586-1.3496094,0.4101562   c-0.2802734,0.2802734-0.4404297,0.6699219-0.4404297,1.0600586c0,0.3999023,0.1601562,0.7797852,0.4404297,1.0600586   c0.2797852,0.2797852,0.6699219,0.4399414,1.0595703,0.4399414c0.1000977,0,0.2001953-0.0102539,0.2900391-0.0297852   c0.1000977-0.0200195,0.1899414-0.050293,0.2802734-0.0800781c0.0898438-0.0400391,0.1796875-0.090332,0.2597656-0.1401367   c0.090332-0.0600586,0.1601562-0.1201172,0.2299805-0.1899414c0.2802734-0.2802734,0.4399414-0.6601562,0.4399414-1.0600586   c0-0.3901367-0.159668-0.7797852-0.4399414-1.0600586C25.8598633,38.4599609,25.7900391,38.3999023,25.699707,38.3496094z"/><path d="M33.2900391,34.0498047c0.0395508,0.0898438,0.0795898,0.1801758,0.1396484,0.2602539   c0.050293,0.0795898,0.1103516,0.159668,0.1801758,0.2299805c0.2797852,0.2797852,0.6699219,0.4399414,1.0600586,0.4399414   c0.1000977,0,0.199707-0.0102539,0.2998047-0.0302734c0.090332-0.0200195,0.1899414-0.0498047,0.2802734-0.0898438   c0.0898438-0.0302734,0.1699219-0.0800781,0.2597656-0.1298828c0.0800781-0.0600586,0.1499023-0.1201172,0.2202148-0.1899414   c0.2797852-0.2802734,0.4399414-0.6704102,0.4399414-1.0600586c0-0.1000977-0.0102539-0.2001953-0.0302734-0.2900391   c-0.0200195-0.1000977-0.0400391-0.2001953-0.0795898-0.2900391c-0.0400391-0.0898438-0.090332-0.1699219-0.1401367-0.25   c-0.050293-0.0898438-0.1201172-0.1601562-0.1899414-0.2299805c-0.550293-0.5600586-1.5600586-0.5600586-2.1201172,0   c-0.0698242,0.0698242-0.1298828,0.1401367-0.1801758,0.2299805c-0.0600586,0.0800781-0.1000977,0.1601562-0.1396484,0.25   c-0.0400391,0.0898438-0.0703125,0.1899414-0.090332,0.2900391c-0.0200195,0.0898438-0.0297852,0.1899414-0.0297852,0.2900391   c0,0.0996094,0.0097656,0.1899414,0.0297852,0.2900391C33.2197266,33.8696289,33.25,33.9599609,33.2900391,34.0498047z"/><path d="M21.2397461,30.9296875c0.0800781,0.050293,0.1699219,0.1000977,0.2602539,0.1401367   c0.0898438,0.0400391,0.1796875,0.0698242,0.2797852,0.0800781c0.0898438,0.0200195,0.1899414,0.0297852,0.2900391,0.0297852   s0.2001953-0.0097656,0.2900391-0.0297852c0.1000977-0.0102539,0.1899414-0.0400391,0.2797852-0.0800781   c0.090332-0.0400391,0.1801758-0.0898438,0.2602539-0.1401367c0.0800781-0.0498047,0.1601562-0.1196289,0.2299805-0.1899414   c0.0698242-0.0698242,0.1298828-0.1401367,0.1899414-0.2197266c0.0498047-0.090332,0.1000977-0.1704102,0.1401367-0.2602539   c0.0297852-0.0898438,0.0600586-0.1899414,0.0800781-0.2797852c0.0200195-0.1000977,0.0297852-0.2001953,0.0297852-0.300293   c0-0.0898438-0.0097656-0.1899414-0.0297852-0.2900391c-0.0200195-0.0996094-0.050293-0.1899414-0.0800781-0.2797852   c-0.0400391-0.0898438-0.090332-0.1801758-0.1401367-0.2602539c-0.0600586-0.0795898-0.1201172-0.159668-0.1899414-0.2299805   c-0.3500977-0.3496094-0.8598633-0.5097656-1.3500977-0.409668C21.6796875,28.2299805,21.5898438,28.2597656,21.5,28.2998047   c-0.090332,0.0297852-0.1801758,0.0800781-0.2602539,0.1401367c-0.0898438,0.0498047-0.1601562,0.1098633-0.2299805,0.1796875   c-0.0698242,0.0703125-0.1298828,0.1503906-0.1899414,0.2299805c-0.0498047,0.0800781-0.1000977,0.1704102-0.1401367,0.2602539   c-0.0297852,0.0898438-0.0600586,0.1801758-0.0800781,0.2797852c-0.0200195,0.1000977-0.0297852,0.2001953-0.0297852,0.2900391   c0,0.3999023,0.1601562,0.7802734,0.4399414,1.0600586C21.0795898,30.8100586,21.1499023,30.8798828,21.2397461,30.9296875z"/><path d="M32.4697266,45.659668c-0.5600586-0.5600586-1.5698242-0.5600586-2.1298828,0   c-0.0600586,0.0703125-0.1298828,0.1503906-0.1801758,0.2299805c-0.0600586,0.0800781-0.0996094,0.1704102-0.1396484,0.2602539   s-0.0703125,0.1796875-0.0800781,0.2797852c-0.0200195,0.090332-0.0302734,0.1899414-0.0302734,0.2900391   c0,0.3999023,0.1601562,0.7802734,0.4301758,1.0600586c0.2797852,0.2802734,0.6699219,0.4399414,1.0600586,0.4399414   c0.3999023,0,0.7900391-0.159668,1.0698242-0.4399414C32.75,47.5,32.909668,47.1196289,32.909668,46.7197266   C32.909668,46.3295898,32.75,45.9399414,32.4697266,45.659668z"/><path d="M23.1298828,51.8994141c0.2797852-0.2695312,0.4399414-0.6591797,0.4399414-1.0595703   c0-0.3901367-0.1601562-0.7797852-0.4399414-1.0600586c-0.5600586-0.5498047-1.5600586-0.5600586-2.1201172,0   c-0.2797852,0.2802734-0.4399414,0.6699219-0.4399414,1.0600586c0,0.4003906,0.1601562,0.7900391,0.4399414,1.0595703   c0.2802734,0.2802734,0.6601562,0.4404297,1.0600586,0.4404297S22.8496094,52.1796875,23.1298828,51.8994141z"/><path d="M35.1098633,58.3398438c0.2797852-0.2802734,0.4399414-0.6601562,0.4399414-1.0595703   c0-0.1005859-0.0097656-0.2001953-0.0297852-0.3007812c-0.0200195-0.0898438-0.050293-0.1894531-0.0800781-0.2792969   c-0.0400391-0.0908203-0.090332-0.1699219-0.1401367-0.25c-0.0600586-0.0908203-0.1201172-0.1601562-0.1899414-0.2304688   c-0.3500977-0.3496094-0.8701172-0.5097656-1.3500977-0.4101562c-0.1000977,0.0205078-0.1899414,0.0400391-0.2797852,0.0800781   c-0.090332,0.0400391-0.1801758,0.0898438-0.2602539,0.140625c-0.0800781,0.0595703-0.159668,0.1191406-0.2299805,0.1894531   c-0.0698242,0.0703125-0.1298828,0.1396484-0.1899414,0.2304688c-0.0498047,0.0800781-0.1000977,0.1591797-0.1298828,0.25   c-0.0400391,0.0898438-0.0703125,0.1894531-0.090332,0.2792969c-0.0195312,0.1005859-0.0297852,0.2001953-0.0297852,0.3007812   c0,0.1992188,0.0400391,0.3896484,0.1098633,0.5693359c0.0800781,0.1806641,0.1899414,0.3505859,0.3300781,0.4902344   c0.2802734,0.2802734,0.6601562,0.4404297,1.0600586,0.4404297S34.8295898,58.6201172,35.1098633,58.3398438z"/><path d="M21.9399414,61.3095703C21.659668,61.5898438,21.5,61.9794922,21.5,62.3701172   c0,0.1992188,0.0400391,0.3896484,0.1196289,0.5800781c0.0703125,0.1796875,0.1801758,0.3398438,0.3203125,0.4794922   C22.2299805,63.7197266,22.5996094,63.8701172,23,63.8701172c0.199707,0,0.3999023-0.0400391,0.5795898-0.1103516   c0.1801758-0.0800781,0.340332-0.1904297,0.4804688-0.3300781c0.1396484-0.1396484,0.25-0.2998047,0.3295898-0.4794922   C24.4697266,62.7597656,24.5,62.5693359,24.5,62.3701172c0-0.390625-0.1601562-0.7802734-0.4399414-1.0605469   C23.5097656,60.75,22.5,60.75,21.9399414,61.3095703z"/></g><text x="0" y="115" fill="#000000" font-size="5px" font-weight="bold" font-family="'Helvetica Neue', Helvetica, Arial-Unicode, Arial, Sans-serif">Created by Artem  Kovyazin</text><text x="0" y="120" fill="#000000" font-size="5px" font-weight="bold" font-family="'Helvetica Neue', Helvetica, Arial-Unicode, Arial, Sans-serif">from the Noun Project</text></svg>