<svg xmlns="http://www.w3.org/2000/svg" xmlns:xlink="http://www.w3.org/1999/xlink" version="1.1" x="0px" y="0px" viewBox="0 0 100 125" enable-background="new 0 0 100 100" xml:space="preserve"><g><g><path fill="#000000" d="M25.6,16.6C25,12,21,8.5,16.2,8.5c-0.8,0-1.5,0.7-1.5,1.5v9.1c-1.7-1.6-4-2.6-6.5-2.6    c-0.8,0-1.5,0.7-1.5,1.5v20c0,4.7,3.5,8.6,8,9.4V86c0,3,2.5,5.5,5.5,5.5s5.5-2.5,5.5-5.5V47.4c4.5-0.7,8-4.6,8-9.4V26    C33.8,21.2,30.2,17.3,25.6,16.6z M24.2,44.5c-0.8,0-1.5,0.7-1.5,1.5v40c0,1.4-1.1,2.5-2.5,2.5s-2.5-1.1-2.5-2.5V46    c0-0.8-0.7-1.5-1.5-1.5c-3.6,0-6.5-2.9-6.5-6.5V19.7c2.9,0.7,5,3.3,5,6.3v4c0,0.8,0.7,1.5,1.5,1.5s1.5-0.7,1.5-1.5V11.7    c2.9,0.7,5,3.3,5,6.3v8v4c0,0.8,0.7,1.5,1.5,1.5s1.5-0.7,1.5-1.5v-4v-6.3c2.9,0.7,5,3.3,5,6.3v12C30.8,41.6,27.8,44.5,24.2,44.5z"/><path fill="#000000" d="M63.7,57.9C63.7,57.9,63.7,57.9,63.7,57.9l-4-36.7c-0.5-7.1-6.4-12.7-13.5-12.7c-0.8,0-1.5,0.7-1.5,1.5    c0,0.1,0,0.2,0,0.2c0,0.1,0,0.2,0,0.2V66v20c0,3,2.5,5.5,5.5,5.5s5.5-2.5,5.5-5.5V67.4c4.5-0.7,7.9-4.6,8-9.2c0,0,0,0,0,0    C63.7,58.1,63.8,58,63.7,57.9C63.8,58,63.7,57.9,63.7,57.9z M54.2,64.5c-0.8,0-1.5,0.7-1.5,1.5v20c0,1.4-1.1,2.5-2.5,2.5    s-2.5-1.1-2.5-2.5V66V11.6c4.8,0.7,8.7,4.8,9,9.9l4,36.6C60.7,61.6,57.8,64.5,54.2,64.5z"/><path fill="#000000" d="M84,8.5c-5.1,0-9.2,4.1-9.2,9.2v20.5c0,3.1,1.5,5.9,4,7.6V86c0,3,2.5,5.5,5.5,5.5s5.5-2.5,5.5-5.5V45.5    c2.2-1.7,3.5-4.4,3.5-7.2V17.8C93.2,12.6,89.1,8.5,84,8.5z M90.2,38.2c0,2.1-1.1,4.1-2.8,5.2c-0.5,0.3-0.7,0.9-0.7,1.4    c0,0,0,0.1,0,0.1v41c0,1.4-1.1,2.5-2.5,2.5s-2.5-1.1-2.5-2.5V45c0,0,0,0,0-0.1c0,0,0-0.1,0-0.1c-0.1-0.6-0.4-1-0.9-1.2    c-1.9-1.1-3.1-3.2-3.1-5.4V17.8c0-3.4,2.8-6.2,6.2-6.2s6.2,2.8,6.2,6.2V38.2z"/></g></g><text x="0" y="115" fill="#000000" font-size="5px" font-weight="bold" font-family="'Helvetica Neue', Helvetica, Arial-Unicode, Arial, Sans-serif">Created by Erich Grois</text><text x="0" y="120" fill="#000000" font-size="5px" font-weight="bold" font-family="'Helvetica Neue', Helvetica, Arial-Unicode, Arial, Sans-serif">from the Noun Project</text></svg>